ply
format ascii 1.0
comment generated by platoply
element vertex 397
property float32 x
property float32 y
property float32 z
element face 718
property list uint8 int32 vertex_indices
end_header
 0.00542159983888268 0.113490000367165 0.0407489985227585
 -0.00174470001365989 0.114249996840954 0.0412730015814304
 -0.0106610003858805 0.113379999995232 0.0409159995615482
 0.0264219995588064 0.114990003407001 0.0326230004429817
 0.0245450008660555 0.122840002179146 0.0242550000548363
 0.0341369993984699 0.113159999251366 0.0250700004398823
 0.0288600008934736 0.117729999125004 0.0270370002835989
 0.0267500001937151 0.122340001165867 0.0176049992442131
 0.0357500016689301 0.112300001084805 0.0191089995205402
 0.0159820001572371 0.123070001602173 0.0312790013849735
 0.00798130035400391 0.124379999935627 0.0327979996800423
 0.0181009992957115 0.116740003228188 0.0354930013418198
 0.00866870023310184 0.117579996585846 0.0375379994511604
 0.0180799998342991 0.125359997153282 0.0261320006102324
 0.00808610022068024 0.12865999341011 0.0261899996548891
 0.022749999538064 0.121459998190403 0.0296710003167391
 -0.0018689000280574 0.124559998512268 0.0331839993596077
 -0.0111680002883077 0.123759999871254 0.0325190015137196
 -0.00200630002655089 0.119369998574257 0.0381040014326572
 -0.0123199997469783 0.118160001933575 0.0374270007014275
 -0.00166589999571443 0.128790006041527 0.0267820004373789
 -0.0119709996506572 0.127230003476143 0.0262189991772175
 0.0164839997887611 0.128279998898506 0.0192799996584654
 0.00709210010245442 0.13102999329567 0.0184150002896786
 0.00146149995271116 0.131339997053146 0.0170949995517731
 -0.0138210002332926 0.128859996795654 0.0192649997770786
 -0.0172499995678663 0.112020000815392 0.0400770008563995
 -0.0745560005307198 0.134149998426437 0.0510459989309311
 -0.0659710019826889 0.143959999084473 0.0410900004208088
 -0.0719249993562698 0.145449995994568 0.0432659983634949
 -0.0655099973082542 0.136240005493164 0.0421949997544289
 -0.0711119994521141 0.137669995427132 0.0475180000066757
 -0.0795279964804649 0.134159997105598 0.0511940009891987
 -0.0804210007190704 0.144280001521111 0.0427929982542992
 -0.0826719999313354 0.137799993157387 0.0468060001730919
 -0.088129997253418 0.135140001773834 0.0422220006585121
 -0.0663250014185905 0.12347000092268 0.0507289990782738
 -0.0723989978432655 0.12661999464035 0.0523639991879463
 -0.066091001033783 0.11973000317812 0.0508809983730316
 -0.0720119997859001 0.118110001087189 0.0522949993610382
 -0.0624330006539822 0.126269996166229 0.0438309982419014
 -0.0683259963989258 0.129979997873306 0.0488750003278255
 -0.0630939975380898 0.118110001087189 0.0443990007042885
 -0.0713009983301163 0.113219998776913 0.0484099984169006
 -0.0805149972438812 0.127409994602203 0.0520340017974377
 -0.0781790018081665 0.119099996984005 0.0511160008609295
 -0.0852160006761551 0.126090005040169 0.0490010008215904
 -0.089538000524044 0.126210004091263 0.0445890016853809
 -0.0826589986681938 0.116609998047352 0.047970000654459
 -0.0895359963178635 0.117839999496937 0.0445699989795685
 -0.0564999990165234 0.152480006217957 0.0301319994032383
 -0.0555169992148876 0.153129994869232 0.0269150007516146
 -0.0362499989569187 0.171979993581772 0.000176879999344237
 -0.0377499982714653 0.171979993581772 0.00022189000446815
 -0.0362499989569187 0.169349998235703 0.000519579974934459
 -0.0331760011613369 0.157110005617142 0.00186820002272725
 -0.0519130006432533 0.154499992728233 0.0112730003893375
 -0.0417070016264915 0.166419997811317 0.0030521999578923
 -0.0494679994881153 0.164140000939369 0.00419879984110594
 -0.0418919995427132 0.156690001487732 0.00548790022730827
 -0.0512240007519722 0.158779993653297 0.00802829954773188
 -0.0624170005321503 0.153170004487038 0.033160999417305
 -0.0716700032353401 0.15319000184536 0.0337009988725185
 -0.0625429973006248 0.155239999294281 0.0274049993604422
 -0.0721099972724915 0.155499994754791 0.0276449993252754
 -0.0786629989743233 0.1526899933815 0.0322679989039898
 -0.0815690010786057 0.153740003705025 0.0260850004851818
 -0.0872500017285347 0.152300000190735 0.0221350006759167
 -0.0572500005364418 0.155680000782013 0.0103249996900558
 -0.057888001203537 0.157499998807907 0.00732249999418855
 -0.0885000005364418 0.152229994535446 0.0192150007933378
 -0.0561290010809898 0.146160006523132 0.030850000679493
 -0.0547050014138222 0.135550007224083 0.0321270003914833
 -0.0541439987719059 0.147139996290207 0.0262749996036291
 -0.0466249994933605 0.132339999079704 0.021909000352025
 -0.0513899996876717 0.136940002441406 0.0257869996130466
 -0.0182780008763075 0.122380003333092 0.0307730007916689
 -0.0216559991240501 0.116429999470711 0.0352090001106262
 -0.031920999288559 0.11565999686718 0.0328509993851185
 -0.0213479995727539 0.124210000038147 0.0245619993656874
 -0.0324099995195866 0.123489998281002 0.023292999714613
 -0.0248690005391836 0.120939999818802 0.028744999319315
 -0.0317469984292984 0.120389997959137 0.0282290000468493
 -0.052912000566721 0.126859992742538 0.0349679999053478
 -0.0416719987988472 0.115639999508858 0.0329979993402958
 -0.0520370006561279 0.116800002753735 0.0345820002257824
 -0.0424950011074543 0.124880000948906 0.0240819994360209
 -0.047945998609066 0.127360001206398 0.0281080007553101
 -0.0424209982156754 0.120350003242493 0.0286330003291368
 -0.0476609990000725 0.12024000287056 0.0288709998130798
 -0.0359640009701252 0.151299998164177 0.000539499975275248
 -0.0505979992449284 0.147400006651878 0.0138809997588396
 -0.046374998986721 0.132929995656013 0.0182889997959137
 -0.049125000834465 0.138559997081757 0.0162690002471209
 -0.0429759994149208 0.149149999022484 0.00540030002593994
 -0.0479650013148785 0.146589994430542 0.00867830030620098
 -0.0229260008782148 0.126300007104874 0.0180769991129637
 -0.0315829999744892 0.125900000333786 0.0178040005266666
 -0.0417330004274845 0.127959996461868 0.0166500005871058
 -0.0614820010960102 0.146980002522469 0.0361680015921593
 -0.0717289969325066 0.150260001420975 0.0383279994130135
 -0.0605259984731674 0.13680000603199 0.0359990000724792
 -0.0826189965009689 0.148230001330376 0.0359550006687641
 -0.0878240019083023 0.144490003585815 0.0337789990007877
 -0.0890000015497208 0.138280004262924 0.0377740003168583
 -0.0856619998812675 0.150949999690056 0.0282080005854368
 -0.0896010026335716 0.14724999666214 0.0258690007030964
 -0.0906810015439987 0.13748000562191 0.0236900001764297
 -0.0587220005691051 0.12924000620842 0.0389919988811016
 -0.0600749999284744 0.115120001137257 0.0376849994063377
 -0.0918119996786118 0.127670004963875 0.0387029983103275
 -0.091727003455162 0.116570003330708 0.0396189987659454
 -0.0931639969348907 0.127210006117821 0.0252110008150339
 -0.0939380005002022 0.12066999822855 0.0243989992886782
 -0.0915829986333847 0.145219996571541 0.0198599994182587
 -0.0909290015697479 0.136669993400574 0.0198170002549887
 -0.0930939987301826 0.116350002586842 0.0189590007066727
 0.0249480009078979 0.102860003709793 0.0414180010557175
 0.0335999988019466 0.0926269963383675 0.040463000535965
 0.0274199992418289 0.0963860005140305 0.0433119982481003
 0.0339200012385845 0.0869110003113747 0.0410340018570423
 0.0281559992581606 0.086837001144886 0.0450839996337891
 0.0338100008666515 0.0786039978265762 0.0408539995551109
 0.0281249992549419 0.0768740028142929 0.0450589992105961
 0.0144999995827675 0.0932789966464043 0.0508799999952316
 0.00748169980943203 0.0947299972176552 0.0523150004446507
 0.0174070000648499 0.105350002646446 0.04313899949193
 0.00795360002666712 0.106329999864101 0.04296800121665
 0.0185109991580248 0.0971940010786057 0.0472530014812946
 0.00864360015839338 0.099322997033596 0.0480789989233017
 -0.00201969989575446 0.0956979990005493 0.0539060011506081
 -0.0114460000768304 0.0951690003275871 0.0538620017468929
 -0.00187499995809048 0.10690999776125 0.0434550009667873
 -0.0118749998509884 0.106880001723766 0.043019000440836
 -0.00176220003049821 0.100709997117519 0.0466479994356632
 -0.0124979997053742 0.100079998373985 0.0459159985184669
 0.016380999237299 0.0858940035104752 0.0516420006752014
 0.0081166997551918 0.0869100019335747 0.0552279986441135
 0.0176439993083477 0.0769549980759621 0.0523720011115074
 0.00812499970197678 0.0768529996275902 0.0555359981954098
 0.0205749999731779 0.0881690010428429 0.049006000161171
 0.0224450007081032 0.0757210031151772 0.0495630018413067
 -0.00179310003295541 0.0868489965796471 0.0568430013954639
 -0.0119430003687739 0.0867709964513779 0.0570090003311634
 -0.00195670011453331 0.0768629983067513 0.057803001254797
 -0.0118749998509884 0.0769639983773232 0.057022001594305
 0.0332500003278255 0.0675410032272339 0.0400330014526844
 0.0281489994376898 0.0668290033936501 0.0429529994726181
 0.0267609991133213 0.0578290000557899 0.0425879992544651
 0.0235709995031357 0.047460000962019 0.0404280014336109
 0.0158319994807243 0.0674180015921593 0.0516390018165112
 0.00804310012608767 0.0669019967317581 0.0550060011446476
 0.0139840003103018 0.0588859990239143 0.050416000187397
 0.00809730030596256 0.0568879991769791 0.0529499985277653
 0.0205659996718168 0.0659580007195473 0.0483000017702579
 0.0185940004885197 0.056538999080658 0.0478789992630482
 0.0128750000149012 0.0526520013809204 0.0496889986097813
 -0.00178519997280091 0.066711999475956 0.0565030016005039
 -0.0117849996313453 0.0668850019574165 0.0550150014460087
 -0.00187499995809048 0.056597001850605 0.0544099994003773
 -0.0118399998173118 0.0570540018379688 0.0527140013873577
 -0.0156880002468824 0.0524690002202988 0.0496149994432926
 0.00661539984866977 0.0499299988150597 0.0512589998543262
 0.018087999895215 0.046654999256134 0.0433209985494614
 0.00884099956601858 0.0454370006918907 0.0466229990124702
 0.017688000574708 0.0397190004587173 0.0430839993059635
 0.00812499970197678 0.0395159982144833 0.0453739985823631
 -0.00161110004410148 0.0498440004885197 0.0517200008034706
 -0.0124500002712011 0.0467730015516281 0.0509029999375343
 -0.0138509999960661 0.0397780016064644 0.05103600025177
 -0.00202940008603036 0.0448740012943745 0.0475869998335838
 -0.0116529995575547 0.0468599982559681 0.0486610010266304
 -0.00186109996866435 0.0396060012280941 0.0473389998078346
 -0.00915450043976307 0.0395799987018108 0.0494149997830391
 0.0436609983444214 0.094028003513813 0.022520000115037
 0.0346419997513294 0.104730002582073 0.0318310000002384
 0.0283429995179176 0.107199996709824 0.0363389998674393
 0.0363389998674393 0.0965519994497299 0.0348430015146732
 0.0317329987883568 0.099371999502182 0.0385049991309643
 0.0369979999959469 0.106679998338223 0.0267810001969337
 0.0328750014305115 0.111079998314381 0.0295899994671345
 0.0409380011260509 0.0971319973468781 0.0266629997640848
 0.0441530011594296 0.0864659994840622 0.0242410004138947
 0.0537500008940697 0.072221003472805 0.0204290002584457
 0.045159999281168 0.0765739977359772 0.0235939994454384
 0.0380359999835491 0.0866630002856255 0.0354590006172657
 0.0378610007464886 0.0766249969601631 0.0356579981744289
 0.0422159992158413 0.0872370004653931 0.0282540004700422
 0.0423550009727478 0.0767470002174377 0.0285800006240606
 0.0438750013709068 0.0962280035018921 0.0152690000832081
 0.0443749986588955 0.0967969968914986 0.00864449981600046
 0.0395449995994568 0.106100000441074 0.0176550000905991
 0.0423129983246326 0.100089997053146 0.0172370001673698
 0.0454059988260269 0.0874169990420341 0.015603999607265
 0.0551179982721806 0.0726390033960342 0.0179440006613731
 0.0487219989299774 0.0737600028514862 0.017433999106288
 0.0459170006215572 0.0862979963421822 0.00942109990864992
 0.0194329991936684 0.109600000083447 0.0390629991889
 0.0109700001776218 0.110579997301102 0.039648000150919
 0.0466569997370243 0.0571530014276505 0.0313370004296303
 0.0560790002346039 0.0663350000977516 0.0241219997406006
 0.0481679998338223 0.0670100003480911 0.0262979995459318
 0.0560549981892109 0.0572529993951321 0.0249019991606474
 0.0511629991233349 0.0566620007157326 0.0291370004415512
 0.0369139984250069 0.0670320019125938 0.0361220017075539
 0.0329999998211861 0.0647199973464012 0.039902999997139
 0.0380039997398853 0.0565069988369942 0.0331190004944801
 0.0306289996951818 0.0549149997532368 0.0384839996695518
 0.0418750010430813 0.066382996737957 0.0283569991588593
 0.0414340011775494 0.0608800016343594 0.0296320002526045
 0.0449209995567799 0.0499040000140667 0.0312430001795292
 0.0546349994838238 0.0501670017838478 0.0220439992845058
 0.0482800006866455 0.0473700016736984 0.0258450005203485
 0.0379730015993118 0.0483470000326633 0.0314560011029243
 0.0280530005693436 0.0470610000193119 0.0359909981489182
 0.0255950000137091 0.0403460003435612 0.0341500006616116
 0.0384549982845783 0.0435089990496635 0.0282780006527901
 0.0320309996604919 0.0432780012488365 0.0292530003935099
 0.0365809984505177 0.0403349995613098 0.0251439996063709
 0.0301900003105402 0.0393210016191006 0.0268469993025064
 0.0593330003321171 0.067891001701355 0.0173610001802444
 0.0465000011026859 0.0714519992470741 0.0197100006043911
 0.0595620013773441 0.0577469989657402 0.0183400008827448
 0.0556359998881817 0.0491990000009537 0.0191730000078678
 0.050500001758337 0.0450639985501766 0.0191810000687838
 0.0230000000447035 0.0478029996156693 0.0397760011255741
 0.0223890002816916 0.0388600006699562 0.0387950018048286
 -0.0195450000464916 0.0939000025391579 0.0522050000727177
 -0.0214620009064674 0.106179997324944 0.0420590005815029
 -0.0310270003974438 0.103950001299381 0.041228000074625
 -0.0225210003554821 0.0977229997515678 0.045194000005722
 -0.0318580009043217 0.0970259979367256 0.0438780002295971
 -0.0432620011270046 0.104120001196861 0.0408909991383553
 -0.0521540008485317 0.104039996862411 0.040972001850605
 -0.0418750010430813 0.0969439968466759 0.0424240007996559
 -0.0519189983606339 0.0969669967889786 0.04356300085783
 -0.0214889999479055 0.0866720005869865 0.0547670014202595
 -0.0270000007003546 0.0830869972705841 0.0502839982509613
 -0.0210699997842312 0.0772489979863167 0.0543650016188622
 -0.026010999456048 0.0896340012550354 0.048980999737978
 -0.0318930000066757 0.0870350003242493 0.0441690012812614
 -0.0256249997764826 0.0748919993638992 0.0471020005643368
 -0.0319700017571449 0.0768999978899956 0.0421769991517067
 -0.0418240018188953 0.0869539976119995 0.0432949997484684
 -0.0518250018358231 0.0868439972400665 0.0449329987168312
 -0.0419179983437061 0.0767280012369156 0.0425640009343624
 -0.0518490001559258 0.0768769979476929 0.0429919995367527
 -0.0613389983773232 0.103929996490479 0.0411639995872974
 -0.072672002017498 0.109760001301765 0.044293999671936
 -0.0617839992046356 0.0968250036239624 0.0433269999921322
 -0.0700580030679703 0.0962029993534088 0.041397001594305
 -0.0804390013217926 0.110909998416901 0.0443429984152317
 -0.0619269981980324 0.0867239981889725 0.0445200018584728
 -0.0703440010547638 0.0873520001769066 0.0419079996645451
 -0.0614099986851215 0.0774890035390854 0.042178001254797
 -0.0685790032148361 0.080144003033638 0.0410239994525909
 -0.0190450008958578 0.067731998860836 0.0523880012333393
 -0.0177420005202293 0.058908998966217 0.0508089996874332
 -0.023547999560833 0.066381998360157 0.0452260002493858
 -0.0339899994432926 0.0677950009703636 0.0409290008246899
 -0.0216899998486042 0.0565490014851093 0.0451640002429485
 -0.0361110009253025 0.0607060007750988 0.0404069982469082
 -0.0412309989333153 0.0669509992003441 0.0413919985294342
 -0.0485880002379417 0.0709559991955757 0.0403570011258125
 -0.0403000004589558 0.0594649985432625 0.0404459983110428
 -0.0219199992716312 0.044964998960495 0.0522579997777939
 -0.029186999425292 0.0435849986970425 0.0510880015790462
 -0.0219190008938313 0.0398259982466698 0.0535209998488426
 -0.0303310006856918 0.0397490002214909 0.0521330013871193
 -0.0219979993999004 0.0498469993472099 0.0467250011861324
 -0.0319110006093979 0.0468479990959167 0.0451870001852512
 -0.0352759994566441 0.0397530011832714 0.0475290007889271
 -0.0420159995555878 0.0448229983448982 0.041593998670578
 -0.0519400015473366 0.0447070002555847 0.0434979982674122
 -0.0419280007481575 0.0393269993364811 0.0435819998383522
 -0.0518569983541965 0.0392520017921925 0.0462119989097118
 -0.0594529993832111 0.0442400015890598 0.0428620018064976
 -0.0607649981975555 0.039087001234293 0.0443629994988441
 -0.0242730006575584 0.110380001366138 0.0391290001571178
 -0.0323790013790131 0.10877999663353 0.0379519984126091
 -0.0411520004272461 0.10852999985218 0.0379690006375313
 -0.0516979992389679 0.109059996902943 0.0382580012083054
 -0.0620910003781319 0.108769997954369 0.0382740013301373
 -0.0716549977660179 0.105959996581078 0.037516001611948
 -0.074634000658989 0.0977459996938705 0.0383469983935356
 -0.0791200026869774 0.105080001056194 0.0323080010712147
 -0.0802029967308044 0.0967580005526543 0.0335920006036758
 -0.0837799981236458 0.105679996311665 0.025985000655055
 -0.0872920006513596 0.103139996528625 0.0208250004798174
 -0.0852100029587746 0.0970790013670921 0.0278099998831749
 -0.0880820006132126 0.0964559987187386 0.0229850001633167
 -0.0751599967479706 0.0860399976372719 0.0388160012662411
 -0.0645769983530045 0.0734549984335899 0.0389700010418892
 -0.0722789987921715 0.0764160007238388 0.0364129990339279
 -0.0763750001788139 0.072563000023365 0.0287299994379282
 -0.0800310000777245 0.0870760008692741 0.0342900007963181
 -0.0789190009236336 0.0793709978461266 0.0324769988656044
 -0.0848340019583702 0.0866860002279282 0.0269740000367165
 -0.0878909975290298 0.0892330035567284 0.0226109996438026
 -0.081047996878624 0.0771690011024475 0.0258290003985167
 -0.0863929986953735 0.107840001583099 0.0186349991708994
 -0.0876720026135445 0.104919999837875 0.0172639992088079
 -0.0893329977989197 0.0984830036759377 0.0176100004464388
 -0.0863749980926514 0.083066999912262 0.0186069998890162
 -0.0891790017485619 0.0891859978437424 0.0189469996839762
 -0.0828789994120598 0.0761089995503426 0.0177939999848604
 -0.0825000032782555 0.0746740028262138 0.00711750006303191
 -0.0264369994401932 0.0641409978270531 0.0393210016191006
 -0.0300350002944469 0.0661299973726273 0.038942001760006
 -0.0261310003697872 0.0565310008823872 0.0388819985091686
 -0.0316639989614487 0.056657001376152 0.0377420000731945
 -0.0457159988582134 0.0645409971475601 0.0391659997403622
 -0.0519590005278587 0.0668689981102943 0.0367330014705658
 -0.0425570011138916 0.0555449984967709 0.0390259996056557
 -0.049405999481678 0.0568920001387596 0.0343439988791943
 -0.0555000007152557 0.0623910017311573 0.0294979996979237
 -0.0537500008940697 0.0585739985108376 0.0263129994273186
 -0.034060001373291 0.050136998295784 0.038577001541853
 -0.0417409986257553 0.0495899990200996 0.0392899997532368
 -0.0509749986231327 0.0494350008666515 0.0369650013744831
 -0.0529999993741512 0.0510650016367435 0.0292089991271496
 -0.0541450008749962 0.0545680001378059 0.0122570004314184
 -0.0558479987084866 0.0541700012981892 0.00832720007747412
 -0.0548439994454384 0.049295000731945 0.0114620001986623
 -0.0561500005424023 0.0506189987063408 0.0092928996309638
 -0.0614509992301464 0.0682569965720177 0.035376001149416
 -0.0697249993681908 0.0699580013751984 0.0327880010008812
 -0.0628229975700378 0.0633220002055168 0.026885999366641
 -0.0710370019078255 0.0667869970202446 0.0252279993146658
 -0.0608570016920567 0.0605680011212826 0.0226429998874664
 -0.0670000016689301 0.0615580007433891 0.020108999684453
 -0.0781999975442886 0.0712789967656136 0.0210319999605417
 -0.0621160008013248 0.0451450012624264 0.0378019995987415
 -0.0654729977250099 0.039512999355793 0.0379640012979507
 -0.0672499984502792 0.0374200008809566 0.0334130004048347
 -0.0727019980549812 0.0650079995393753 0.0187010001391172
 -0.0614500008523464 0.0591650009155273 0.0187309999018908
 -0.067500002682209 0.0614789985120296 0.0192210003733635
 -0.0574110001325607 0.0541139990091324 0.00382569991052151
 -0.0792220011353493 0.07065399736166 0.0177350006997585
 -0.0624729990959167 0.0446799993515015 0.0111100003123283
 -0.0672499984502792 0.0422579981386662 0.0104139996692538
 -0.0663890019059181 0.0405149981379509 0.0131599996238947
 -0.0683590024709702 0.038502000272274 0.0119580002501607
 -0.0613810010254383 0.0474799983203411 0.0076069999486208
 -0.0685589984059334 0.0435490012168884 0.00815759971737862
 -0.0709289982914925 0.0398299992084503 0.00858880020678043
 -0.0166250001639128 0.183750003576279 -0.0197349991649389
 -0.0151979997754097 0.174710005521774 -0.0188679993152618
 -0.0159440003335476 0.162640005350113 -0.00910369958728552
 -0.0159770008176565 0.160699993371964 -0.00880720000714064
 -0.0132510000839829 0.167080000042915 -0.015263999812305
 -0.014291999861598 0.160980001091957 -0.0112519999966025
 -0.0139859998598695 0.184000000357628 -0.0237390007823706
 -0.0116330003365874 0.176990002393723 -0.0233490001410246
 -0.00910289958119392 0.169880002737045 -0.0214569997042418
 -0.0255619995296001 0.182730004191399 -0.00962470006197691
 -0.0272499993443489 0.182539999485016 -0.00943840015679598
 -0.0257360003888607 0.179480001330376 -0.00896530039608479
 -0.0312159992754459 0.175889998674393 -0.00511540006846189
 -0.0203990004956722 0.184499993920326 -0.0149429999291897
 -0.0213389992713928 0.176449999213219 -0.0145659996196628
 -0.0271249990910292 0.172340005636215 -0.010156000033021
 -0.0393900014460087 0.173299998044968 -0.00235749990679324
 -0.0228760000318289 0.164059996604919 -0.00781030021607876
 -0.0315969996154308 0.166510000824928 -0.00492919981479645
 -0.0226000007241964 0.159119993448257 -0.0037990000564605
 -0.0303719993680716 0.157670006155968 -0.00126719998661429
 -0.0211580004543066 0.168489992618561 -0.0123829999938607
 -0.0270000007003546 0.171200007200241 -0.010219999589026
 -0.0417190007865429 0.168129995465279 -0.000749579980038106
 -0.048250000923872 0.167480006814003 -0.000151910004206002
 -0.0372500009834766 0.161469995975494 -7.26279977243394e-05
 -0.0664289966225624 0.157829999923706 -0.00856729969382286
 -0.0712840035557747 0.158390000462532 -0.00599800003692508
 -0.0659789964556694 0.162880003452301 -0.0177919995039701
 -0.0716229975223541 0.163839995861053 -0.015760000795126
 -0.0660680010914803 0.160510003566742 -0.0135669996961951
 -0.0733070001006126 0.16049000620842 -0.0118319997563958
 -0.0769999995827675 0.162039995193481 -0.0192409995943308
 -0.0771789997816086 0.158509999513626 -0.0149499997496605
 -0.0736910030245781 0.172859996557236 -0.0379440002143383
 -0.0775500014424324 0.172209993004799 -0.0391750000417233
 -0.0659210011363029 0.165859997272491 -0.0250220000743866
 -0.0720949992537498 0.167840003967285 -0.0247249994426966
 -0.0659999996423721 0.168080002069473 -0.0309159997850657
 -0.0734480023384094 0.170509994029999 -0.0320449993014336
 -0.0777700021862984 0.164340004324913 -0.0259380005300045
 -0.0778929963707924 0.160390004515648 -0.0212990008294582
 -0.0782110020518303 0.168999999761581 -0.0345660001039505
 -0.0346670001745224 0.151309996843338 -0.000710289983544499
 -0.0661170035600662 0.173529997467995 -0.0474530011415482
 -0.0719859972596169 0.17611999809742 -0.0453840009868145
 -0.0692500025033951 0.181999996304512 -0.0550259985029697
 -0.0649920031428337 0.178020000457764 -0.0546449981629848
 -0.0699350014328957 0.179829999804497 -0.051987998187542
 -0.0779300034046173 0.175160005688667 -0.0443999990820885
3 0 12 198
3 1 0 198
3 132 1 198
3 127 132 198
3 129 127 198
3 126 129 198
3 197 126 198
3 11 197 198
3 11 12 198
3 9 11 12
3 10 9 12
3 16 10 12
3 18 16 12
3 1 18 12
3 1 0 12
3 19 18 1
3 2 19 1
3 133 2 1
3 133 132 1
3 135 133 132
3 130 135 132
3 134 130 132
3 129 134 132
3 129 127 132
3 130 134 129
3 125 130 129
3 137 125 129
3 124 137 129
3 128 124 129
3 128 126 129
3 119 128 126
3 117 119 126
3 176 117 126
3 176 197 126
3 3 176 197
3 15 3 197
3 15 11 197
3 13 15 11
3 13 9 11
3 22 13 9
3 14 22 9
3 14 10 9
3 23 14 10
3 24 23 10
3 20 24 10
3 20 16 10
3 21 20 16
3 76 21 16
3 17 76 16
3 19 17 16
3 19 18 16
3 76 17 19
3 77 76 19
3 278 77 19
3 26 278 19
3 133 26 19
3 133 2 19
3 278 26 133
3 228 278 133
3 230 228 133
3 230 135 133
3 239 230 135
3 227 239 135
3 236 227 135
3 143 236 135
3 131 143 135
3 131 130 135
3 143 131 130
3 145 143 130
3 142 145 130
3 139 142 130
3 137 139 130
3 137 125 130
3 138 139 137
3 141 138 137
3 136 141 137
3 140 136 137
3 140 124 137
3 121 140 124
3 119 121 124
3 119 128 124
3 120 121 119
3 185 120 119
3 118 185 119
3 177 118 119
3 178 177 119
3 175 178 119
3 176 175 119
3 176 117 119
3 179 175 176
3 180 179 176
3 5 180 176
3 6 5 176
3 6 3 176
3 4 6 3
3 4 15 3
3 22 4 15
3 22 13 15
3 7 4 22
3 23 14 22
3 25 24 20
3 25 21 20
3 96 25 21
3 79 96 21
3 81 79 21
3 81 76 21
3 82 81 76
3 78 82 76
3 78 77 76
3 279 78 77
3 229 279 77
3 229 278 77
3 230 229 278
3 230 228 278
3 234 229 230
3 231 234 230
3 240 231 230
3 240 239 230
3 242 240 239
3 237 242 239
3 238 237 239
3 236 238 239
3 236 227 239
3 256 238 236
3 145 256 236
3 145 143 236
3 257 256 145
3 158 257 145
3 159 158 145
3 157 159 145
3 151 157 145
3 144 151 145
3 144 142 145
3 151 144 142
3 151 139 142
3 153 151 139
3 152 153 139
3 155 152 139
3 150 155 139
3 154 150 139
3 141 154 139
3 141 138 139
3 147 154 141
3 123 147 141
3 121 123 141
3 140 121 141
3 140 136 141
3 122 123 121
3 186 122 121
3 186 120 121
3 186 185 120
3 188 186 185
3 184 188 185
3 182 184 185
3 187 182 185
3 174 187 185
3 181 174 185
3 177 181 185
3 177 118 185
3 179 181 177
3 175 179 177
3 175 178 177
3 192 181 179
3 191 192 179
3 8 191 179
3 5 8 179
3 5 180 179
3 6 8 5
3 7 8 6
3 7 4 6
3 80 97 96
3 82 80 96
3 81 82 96
3 81 79 96
3 86 80 82
3 88 86 82
3 84 88 82
3 84 78 82
3 280 84 78
3 280 279 78
3 232 280 279
3 232 229 279
3 232 234 229
3 281 232 234
3 233 281 234
3 235 233 234
3 244 235 234
3 243 244 234
3 240 243 234
3 240 231 234
3 244 243 240
3 245 244 240
3 259 245 240
3 259 242 240
3 308 259 242
3 307 308 242
3 258 307 242
3 256 258 242
3 256 238 241
3 241 256 242
3 238 241 242
3 238 237 242
3 307 258 256
3 309 307 256
3 260 309 256
3 269 260 256
3 269 257 256
3 265 269 257
3 161 265 257
3 160 161 257
3 160 158 257
3 160 159 158
3 161 160 159
3 168 161 159
3 171 168 159
3 170 171 159
3 167 170 159
3 164 167 159
3 162 164 159
3 156 162 159
3 153 156 159
3 151 153 159
3 151 157 159
3 155 156 153
3 155 152 153
3 163 156 155
3 225 163 155
3 148 225 155
3 154 148 155
3 154 150 155
3 147 148 154
3 207 148 147
3 205 207 147
3 204 205 147
3 146 204 147
3 122 146 147
3 122 123 147
3 204 146 122
3 204 186 122
3 208 204 186
3 201 208 186
3 201 188 186
3 221 201 188
3 195 221 188
3 195 184 188
3 193 195 184
3 193 182 184
3 174 193 182
3 174 187 182
3 190 193 174
3 189 190 174
3 192 189 174
3 192 181 174
3 190 189 192
3 190 191 192
3 8 190 191
3 7 190 8
3 86 98 97
3 86 80 97
3 92 98 86
3 74 92 86
3 75 74 86
3 87 75 86
3 83 87 86
3 89 83 86
3 89 88 86
3 85 89 88
3 85 84 88
3 281 85 84
3 232 281 84
3 232 280 84
3 109 85 281
3 282 109 281
3 247 282 281
3 247 233 281
3 249 247 233
3 249 235 233
3 252 249 235
3 252 244 235
3 291 252 244
3 255 291 244
3 293 255 244
3 254 293 244
3 292 254 244
3 325 292 244
3 246 325 244
3 263 246 244
3 311 263 244
3 262 311 244
3 262 245 244
3 264 262 245
3 261 264 245
3 261 259 245
3 310 261 259
3 310 308 259
3 310 307 308
3 310 309 307
3 317 310 309
3 270 317 309
3 269 270 309
3 269 260 309
3 271 270 269
3 266 271 269
3 268 266 269
3 267 268 269
3 267 265 269
3 169 267 265
3 169 161 265
3 173 169 161
3 173 168 161
3 173 171 168
3 173 170 171
3 172 173 170
3 166 172 170
3 164 166 170
3 164 167 170
3 165 166 164
3 163 165 164
3 156 163 164
3 156 162 164
3 226 165 163
3 215 226 163
3 214 215 163
3 214 225 163
3 149 214 225
3 149 148 225
3 214 149 148
3 214 207 148
3 217 214 207
3 213 217 207
3 206 213 207
3 209 206 207
3 204 209 207
3 204 205 207
3 209 208 204
3 199 209 208
3 203 199 208
3 203 201 208
3 202 203 201
3 200 202 201
3 220 200 201
3 194 220 201
3 183 194 201
3 195 183 201
3 195 221 201
3 194 183 195
3 194 193 195
3 196 194 193
3 196 190 193
3 93 98 92
3 93 74 92
3 93 75 74
3 91 93 75
3 73 91 75
3 50 73 75
3 71 50 75
3 99 71 75
3 101 99 75
3 72 101 75
3 108 72 75
3 83 108 75
3 83 87 75
3 40 108 83
3 42 40 83
3 109 42 83
3 85 109 83
3 85 89 83
3 283 282 109
3 248 283 109
3 43 248 109
3 38 43 109
3 38 42 109
3 249 283 282
3 249 247 282
3 284 283 249
3 250 284 249
3 291 250 249
3 291 252 253
3 253 291 249
3 253 252 249
3 284 250 291
3 286 284 291
3 295 286 291
3 296 295 291
3 293 296 291
3 293 255 291
3 299 296 293
3 331 299 293
3 294 331 293
3 328 294 293
3 326 328 293
3 325 326 293
3 292 325 293
3 292 254 293
3 263 246 325
3 311 263 325
3 312 311 325
3 314 312 325
3 315 314 325
3 316 315 325
3 329 316 325
3 327 329 325
3 330 327 325
3 328 330 325
3 328 326 325
3 262 312 311
3 313 262 264
3 318 313 264
3 310 318 264
3 310 261 264
3 318 317 310
3 272 318 317
3 274 272 317
3 271 274 317
3 271 270 317
3 275 274 271
3 268 275 271
3 268 266 271
3 226 166 165
3 219 215 226
3 218 219 215
3 216 218 215
3 217 216 215
3 217 214 215
3 216 213 217
3 212 216 213
3 210 212 213
3 199 210 213
3 209 199 213
3 209 206 213
3 212 210 199
3 212 203 199
3 211 212 203
3 211 202 203
3 223 211 202
3 222 223 202
3 220 222 202
3 220 200 202
3 196 220 194
3 94 98 93
3 95 94 93
3 95 91 93
3 94 95 91
3 60 94 91
3 56 60 91
3 69 56 91
3 68 69 91
3 68 73 91
3 51 68 73
3 63 51 73
3 63 50 73
3 61 63 50
3 61 71 50
3 61 99 71
3 64 61 99
3 62 64 99
3 100 62 99
3 29 100 99
3 28 29 99
3 30 28 99
3 30 101 99
3 41 30 101
3 40 41 101
3 108 40 101
3 108 72 101
3 38 42 40
3 39 38 40
3 36 39 40
3 37 36 40
3 37 41 40
3 48 248 283
3 251 48 283
3 285 251 283
3 289 285 283
3 286 289 283
3 286 284 283
3 45 48 248
3 39 45 248
3 39 38 43
3 39 43 248
3 290 289 286
3 298 290 286
3 297 298 286
3 296 297 286
3 296 295 286
3 298 297 296
3 303 298 296
3 305 303 296
3 305 299 296
3 339 305 299
3 339 331 299
3 335 339 331
3 335 294 331
3 337 335 294
3 330 337 294
3 330 328 294
3 313 314 312
3 313 262 312
3 316 315 314
3 329 316 314
3 336 329 314
3 320 336 314
3 332 320 314
3 276 332 314
3 319 276 314
3 273 319 314
3 272 273 314
3 318 272 314
3 318 313 314
3 337 336 329
3 330 337 329
3 330 327 329
3 275 273 272
3 275 274 272
3 319 273 275
3 276 319 275
3 277 276 275
3 212 218 216
3 224 218 212
3 223 224 212
3 223 211 212
3 390 98 94
3 90 390 94
3 55 90 94
3 372 55 94
3 59 372 94
3 59 60 94
3 57 59 60
3 371 57 60
3 58 371 60
3 69 58 60
3 69 56 60
3 68 63 51
3 64 68 63
3 64 61 63
3 66 68 64
3 105 66 64
3 65 105 64
3 102 65 64
3 100 102 64
3 100 62 64
3 33 102 100
3 33 29 100
3 34 33 29
3 32 34 29
3 27 32 29
3 31 27 29
3 30 31 29
3 30 28 29
3 27 31 30
3 37 27 30
3 37 41 30
3 44 45 39
3 37 44 39
3 37 36 39
3 32 27 37
3 32 44 37
3 44 45 48
3 46 44 48
3 47 46 48
3 49 47 48
3 111 49 48
3 111 251 48
3 285 111 251
3 287 111 285
3 301 287 285
3 288 301 285
3 302 288 285
3 290 302 285
3 290 289 285
3 304 302 290
3 304 298 290
3 303 304 298
3 302 304 303
3 306 302 303
3 306 305 303
3 306 339 305
3 335 306 339
3 336 337 335
3 336 306 335
3 324 336 320
3 323 324 320
3 334 323 320
3 333 334 320
3 333 332 320
3 277 333 332
3 277 276 332
3 334 333 277
3 55 390 90
3 367 390 55
3 367 372 55
3 366 367 372
3 365 366 372
3 54 365 372
3 53 54 372
3 363 53 372
3 370 363 372
3 57 370 372
3 57 59 372
3 363 370 57
3 363 371 57
3 371 69 58
3 70 68 66
3 67 70 66
3 106 67 66
3 106 105 66
3 103 106 105
3 102 103 105
3 102 65 105
3 104 103 102
3 35 104 102
3 34 35 102
3 34 33 102
3 110 35 34
3 47 110 34
3 46 47 34
3 44 46 34
3 44 32 34
3 111 110 47
3 111 49 47
3 287 110 111
3 116 110 287
3 300 116 287
3 300 301 287
3 302 288 301
3 321 323 324
3 322 321 324
3 338 322 324
3 344 338 324
3 344 336 324
3 390 366 367
3 350 390 366
3 349 350 366
3 368 349 366
3 364 368 366
3 369 364 366
3 369 365 366
3 362 369 365
3 358 362 365
3 356 358 365
3 357 356 365
3 359 357 365
3 363 359 365
3 363 53 52
3 52 363 365
3 53 52 365
3 53 54 365
3 114 67 70
3 114 106 67
3 115 114 106
3 107 115 106
3 107 103 106
3 107 104 103
3 110 107 104
3 110 35 104
3 112 107 110
3 113 112 110
3 113 116 110
3 301 116 300
3 344 322 338
3 336 322 344
3 352 349 350
3 368 352 349
3 351 352 368
3 355 351 368
3 348 355 368
3 361 348 368
3 356 361 368
3 358 356 368
3 362 358 368
3 369 362 368
3 369 364 368
3 357 363 359
3 115 112 107
3 113 115 112
3 116 115 113
3 355 352 351
3 353 354 355
3 347 353 355
3 347 348 355
3 360 347 348
3 360 361 348
3 360 356 361
3 360 347 353
3 340 341 342
3 345 341 342
3 346 345 342
3 343 346 342
3 340 345 341
3 373 374 377
3 376 375 377
3 380 376 377
3 378 380 377
3 378 374 377
3 380 378 374
3 384 383 375
3 379 384 375
3 379 376 375
3 379 380 376
3 387 379 380
3 388 387 380
3 386 385 383
3 386 384 383
3 382 386 384
3 389 382 384
3 387 389 384
3 387 379 384
3 382 381 385
3 382 386 385
3 392 381 382
3 396 392 382
3 396 382 389
3 391 381 392
3 394 391 392
3 395 394 392
3 393 395 392
3 393 396 392
3 393 395 394
