ply
format ascii 1.0
comment generated by platoply
element vertex 12
property float32 x
property float32 y
property float32 z
element face 25
property list uint8 int32 vertex_indices
end_header
 -12.5001001358032 -0.00181399995926768 -12.4998998641968
 -12.0157098770142 -0.00181399995926768 -11.9482803344727
 -12.0053796768188 -0.00181399995926768 -11.1685304641724
 -11.5001001358032 -0.00181399995926768 -12.4998998641968
 -11.426830291748 -0.00181399995926768 -10.8694696426392
 -11.200779914856 -0.00181399995926768 -11.8568696975708
 -10.5729398727417 -0.00181399995926768 -11.5097503662109
 -10.5001001358032 -0.00181399995926768 -12.4998998641968
 -10.0291004180908 -0.00181399995926768 -10.912130355835
 -10.0197601318359 -0.00181399995926768 -11.8884496688843
 -9.50010967254639 -0.00181399995926768 -12.4998998641968
 -9.38944053649902 -0.00181399995926768 -11.6866598129272
3 10 9 11
3 10 9 11
3 10 7 9
3 10 7 9
3 9 10 7
3 9 11 10
3 9 8 11
3 9 6 8
3 9 7 6
3 9 7 6
3 7 5 6
3 7 3 5
3 7 3 5
3 5 7 3
3 5 6 7
3 5 4 6
3 5 2 4
3 5 1 2
3 5 3 1
3 5 3 1
3 3 0 1
3 3 0 1
3 1 3 0
3 1 5 3
3 1 2 5
